<svg id="Layer_1" enable-background="new 0 0 493.894 493.894" height="512" viewBox="0 0 493.894 493.894" width="512" xmlns="http://www.w3.org/2000/svg"><g><g><g><g><g><path d="m246.947 10.235c-70.734 0-134.371 30.373-178.593 78.783v314.531c30.094 22.593 84.68 51.647 164.037 48.615 181.333-6.928 242.559-119.335 242.559-119.335 8.949-25.257 13.826-52.44 13.826-80.765.001-133.558-108.27-241.829-241.829-241.829z" fill="#508dca"/></g></g></g></g><g><g><path d="m96.072 378.163 5.544-259.586h69.431c40.867 0 72.997 11.576 96.391 34.716 23.382 23.152 35.085 63.523 35.085 121.136 0 1.23-.005 2.453-.016 3.668-.494 55.662-6.222 97.992-29.353 120.638-.57.559-1.172 1.101-1.758 1.651h67.255s-.803-43.004-.889-44.926c-.547-12.221 10.793-22.63 22.63-22.63h61.279c2.795-18.352 4.204-37.814 4.204-58.401 0-.972-.003-1.942-.01-2.91-.346-52.427-14.352-96.121-33.446-134.083-19.458-38.652-45.816-63.589-80.775-84.028-28.842-16.848-58.626-26.906-93.866-29.919-35.147.708-68.453 8.917-98.385 23.087-42.218 26.262-75.752 65.169-95.301 111.429-12.219 28.913-18.974 60.698-18.974 94.061 0 46.206 12.966 89.381 35.448 126.098h55.506z" fill="#305689"/></g></g><path d="m482.506 256.492v-.002c-.016-2.413-.07-4.969-.163-7.814-1.223-48.68-11.014-91.596-29.103-127.559-39.319-78.103-112.24-121.117-205.329-121.117h-188.91c-10.396 0-18.822 8.427-18.822 18.822v358.721c3.85 6.33 7.985 12.466 12.383 18.397l88.555 30.558c50.991 17.595 104.975 24.882 158.803 21.381 47.432-3.084 95.615-6.618 96.999-6.098 36.457-28.862 64.401-68.009 79.448-113.06 4.081-21.561 6.152-44.789 6.152-69.363-.003-.957-.007-1.913-.013-2.866zm-143.186 3.959-.02 2.307c-.442 49.598-10.588 84.459-30.157 103.619-20.373 19.955-47.574 29.655-83.158 29.655h-53.931v-273.349h53.931c36.02 0 63.323 9.686 83.463 29.608 19.823 19.627 29.873 55.65 29.873 107.067.001.365 0 .73-.001 1.093z" fill="#ff9b80"/><g><g><g><path d="m223.033 157.187 3.355 8.794c1.681 4.405 5.16 7.885 9.565 9.565l8.794 3.355-8.794 3.355c-4.405 1.681-7.885 5.16-9.565 9.565l-3.355 8.794-3.355-8.794c-1.681-4.405-5.16-7.885-9.565-9.565l-8.794-3.355 8.794-3.355c4.405-1.681 7.885-5.16 9.565-9.565z" fill="#fff"/></g></g><g><g><path d="m227.811 285.513 4.539 11.898c2.274 5.96 6.981 10.668 12.942 12.942l11.898 4.539-11.898 4.539c-5.96 2.274-10.668 6.981-12.942 12.942l-4.539 11.898-4.539-11.898c-2.274-5.96-6.981-10.668-12.942-12.942l-11.898-4.539 11.898-4.539c5.96-2.274 10.668-6.981 12.942-12.942z" fill="#fff"/></g></g><g><g><path d="m296.644 200.615 5.129 13.446c2.57 6.736 7.89 12.057 14.626 14.626l13.446 5.129-13.446 5.129c-6.736 2.57-12.057 7.89-14.626 14.626l-5.129 13.446-5.129-13.446c-2.57-6.736-7.89-12.057-14.626-14.626l-13.446-5.129 13.446-5.129c6.736-2.57 12.057-7.89 14.626-14.626z" fill="#fff"/></g></g></g><path d="m246.947 493.894c58.022 0 111.265-20.443 152.938-54.507 25.62-25.1 44.72-56.208 59.036-90.759 7.364-26.811 11.049-56.569 11.049-89.27 0-.931-.003-1.86-.009-2.786-.024-3.6-2.748-6.709-2.903-10.224-2.01-45.496-12.149-84.413-29.12-118.153-18.63-37.007-43.867-60.883-77.338-80.452-33.481-19.558-68.268-29.586-112.114-29.586l-195.763-5.612v383.61c44.071 59.308 114.657 97.739 194.224 97.739zm-87.437-383.756h66.476c39.128 0 69.891 11.083 92.289 33.238 22.387 22.167 33.592 60.82 33.592 115.981 0 1.178-.005 2.349-.016 3.512 0 0 2.623 7.271 2.539 10.811-1.133 47.97-10.019 84.501-30.643 104.693-22.631 22.167-58.409 37.371-97.061 37.371h-73.704v-297.167z" fill="#d52242"/><g><g><g><g><g><path d="m247.91 43.976c72.33 0 132.73 30.726 166.046 96.906 15.981 31.773 24.223 70.694 24.552 115.691h31.431c-.333-50.189-9.623-93.472-27.903-129.814-38.684-76.842-109.709-114.214-194.126-114.214h-195.187l31.431 31.431z" fill="#ff9b80"/></g></g></g><g><g><g><path d="m351.845 262.87c-.475 53.289-11.778 90.788-33.922 112.469-22.631 22.167-53.284 33.238-91.936 33.238h-66.477v-298.439l-31.431-31.431v361.3h97.908c47 0 85.331-14.203 113.924-42.21 28.661-28.061 42.853-72.23 43.363-134.928h-31.429z" fill="#ff9b80"/></g></g></g></g><path d="m104.15 447.232v-375.034h147.329c87.44 0 158.579 71.138 158.579 158.578v73.821c0 42.856-16.828 83.008-47.382 113.06-30.554 30.051-70.951 46.197-113.832 45.497l-123.543-2.053c5.388 3.142 10.903 6.09 16.545 8.817l106.856 1.776c.957.016 1.907.024 2.861.024 44.093 0 85.583-16.972 117.102-47.971 32.2-31.67 49.934-73.985 49.934-119.149v-73.821c0-92.15-74.97-167.12-167.12-167.12h-151.6c-2.359 0-4.271 1.912-4.271 4.271v372.748c2.798 2.247 5.645 4.433 8.542 6.556z" fill="#ff9b80"/></g></g></svg>